<?xml version="1.0"?>
<svg width="128" height="128"
  xmlns="http://www.w3.org/2000/svg"
  xmlns:svg="http://www.w3.org/2000/svg">
  <g fill="#000000" transform="matrix(0.00925555 0 0 -0.00925555 289.347 215.578)">
    <path d="m-23713.14,20837.05c-52,-56 -142,-188 -142,-208c0,-29 -49,-45 -123,-43c-39,2 -106,3 -147,2c-41,0 -115,-1 -165,-2c-49,0 -106,2 -126,5c-32,6 -42,2 -74,-26c-20,-18 -48,-55 -62,-83c-14,-28 -31,-54 -37,-58c-6,-4 -34,-8 -62,-8c-28,0 -69,-6 -90,-14c-22,-7 -68,-16 -103,-20c-72,-8 -199,-41 -303,-77l-68,-24l-47,54c-47,53 -132,193 -133,219c0,7 -17,33 -37,58c-29,34 -44,44 -68,44c-48,0 -225,-46 -285,-73c-30,-14 -93,-42 -140,-62c-47,-21 -98,-48 -115,-60c-78,-58 -313,-145 -390,-145c-51,0 -69,24 -59,79c4,25 8,69 8,96c1,49 0,50 -44,73c-56,28 -127,29 -180,2c-21,-11 -41,-24 -45,-30c-3,-5 -23,-14 -45,-20c-34,-9 -46,-22 -105,-112c-37,-55 -73,-118 -80,-138c-24,-67 -45,-101 -73,-113c-15,-6 -55,-32 -90,-57c-48,-35 -65,-53 -72,-82c-6,-20 -17,-49 -25,-65c-8,-15 -15,-33 -15,-40c0,-7 -17,-30 -37,-51c-29,-30 -49,-41 -83,-47c-25,-3 -77,-22 -116,-40c-108,-51 -179,-72 -279,-83c-86,-10 -186,-38 -249,-69c-42,-22 -117,-43 -152,-43c-20,0 -39,9 -55,26c-13,14 -47,39 -76,55c-44,25 -65,31 -125,32c-72,2 -74,1 -148,-47c-41,-28 -101,-74 -133,-103c-32,-29 -62,-53 -66,-53c-5,0 -29,-31 -55,-68c-46,-68 -46,-69 -36,-121c5,-28 14,-60 20,-71c16,-31 1,-68 -38,-92c-20,-12 -83,-45 -139,-73c-94,-46 -106,-55 -138,-105c-20,-30 -38,-65 -42,-78c-10,-41 4,-225 21,-271c19,-52 22,-201 4,-252c-14,-42 -51,-92 -83,-113c-13,-8 -52,-20 -87,-25c-34,-6 -115,-33 -178,-60c-63,-27 -153,-61 -200,-76c-47,-15 -116,-46 -155,-70c-38,-23 -86,-50 -105,-60c-19,-10 -70,-50 -113,-89c-117,-107 -167,-227 -146,-354c6,-42 17,-63 47,-96c22,-24 45,-52 51,-63c12,-24 3,-37 -119,-178c-41,-48 -89,-108 -107,-134c-50,-72 -70,-87 -185,-138c-118,-52 -217,-120 -316,-215c-59,-56 -63,-62 -55,-92c25,-96 -4,-228 -84,-388c-44,-87 -44,-88 -27,-120c30,-60 65,-99 139,-153c40,-30 88,-73 106,-97l34,-42l3,-281c2,-154 4,-421 5,-593l2,-314l28,-24c16,-14 49,-30 74,-37c35,-9 52,-21 79,-58c19,-26 34,-50 34,-54c0,-4 13,-24 28,-44c29,-37 37,-56 93,-201c45,-116 89,-191 138,-235c22,-20 55,-66 72,-101c37,-74 35,-121 -6,-182c-22,-32 -32,-58 -70,-192c-17,-60 -18,-130 -2,-149c8,-9 31,-55 52,-102c37,-85 39,-87 99,-118c48,-24 74,-31 119,-31c34,0 64,-5 71,-13c20,-21 52,-81 60,-112c11,-44 43,-73 100,-90c51,-15 83,-47 100,-102c4,-12 17,-41 30,-64c19,-37 31,-47 81,-66c142,-55 165,-94 165,-275l0,-125l47,-44c25,-24 63,-60 82,-80c42,-42 101,-81 186,-122c77,-37 143,-54 244,-63c78,-6 82,-6 118,22c21,15 41,34 46,41c9,15 69,27 99,20c13,-4 49,-29 82,-56c53,-45 65,-50 124,-57c58,-6 71,-4 110,17c115,61 184,136 240,260c25,57 44,73 117,99c194,70 341,168 419,280c26,38 31,54 31,105c0,51 -6,69 -37,120c-20,33 -49,71 -63,85c-15,14 -55,61 -88,105c-33,44 -73,94 -88,110c-15,17 -41,56 -58,89c-26,49 -31,69 -31,128c0,87 17,150 39,146c10,-2 17,-15 19,-33c10,-116 83,-305 164,-427c63,-95 337,-362 410,-399c77,-39 181,-70 268,-80c47,-5 119,-14 160,-20c69,-10 267,-13 336,-4c16,2 65,6 109,9c252,20 403,46 485,85c80,37 323,170 329,179c3,5 38,35 76,67c113,95 246,242 323,358c40,59 72,112 72,116c0,5 7,14 15,21c17,14 95,175 117,240c38,113 48,149 48,173c0,13 6,42 14,64c8,22 20,76 27,119c7,43 23,107 36,142c12,34 23,78 23,96c0,19 8,43 18,54c15,18 23,19 82,11c36,-5 137,-9 225,-8c88,0 169,0 181,-1c24,0 22,13 27,-285c2,-147 7,-195 24,-260c12,-44 33,-129 47,-190c15,-60 35,-122 46,-137c11,-15 20,-32 20,-37c0,-6 21,-40 46,-76c25,-36 54,-81 63,-99c36,-76 435,-476 473,-476c6,0 33,-12 62,-26c46,-23 134,-49 281,-82c74,-17 192,-29 260,-26c33,1 146,5 250,8c182,7 319,24 395,51c19,7 57,15 83,19c27,4 57,16 68,27c10,10 22,19 25,19c15,0 155,66 199,95c28,17 83,51 123,75c88,52 224,194 294,308c92,150 146,385 149,646c0,64 4,118 8,121c5,2 21,-9 37,-26c16,-17 62,-46 101,-65c40,-19 78,-45 85,-57c6,-12 11,-54 11,-94c-2,-84 -18,-122 -105,-235c-60,-79 -75,-118 -64,-162c5,-20 15,-27 60,-36c29,-6 61,-17 71,-24c20,-14 19,-18 -40,-181c-19,-55 -33,-105 -31,-111c9,-23 -17,-112 -58,-199c-71,-149 -80,-178 -67,-217c22,-66 150,-111 341,-122c100,-6 252,-40 259,-58c7,-19 114,-132 147,-155c18,-13 44,-23 59,-23c52,0 234,50 321,88c136,60 179,71 305,80c103,8 125,12 192,44c91,44 109,71 111,168c2,74 18,105 87,163c36,31 47,35 126,41c98,8 127,20 171,71c50,56 65,92 58,139c-6,35 -3,46 21,74c16,18 66,51 113,75c73,37 91,51 127,102c100,142 94,120 99,347c2,112 8,227 14,256c5,32 5,63 0,77c-11,28 -7,32 85,77c40,20 109,42 160,53c99,19 117,30 121,72c5,55 23,142 33,162c6,11 11,33 11,50c0,42 62,171 104,216c35,36 38,37 85,31c57,-8 173,17 193,41c19,24 50,141 55,211c4,49 0,71 -15,104c-16,30 -18,46 -11,65c5,13 9,39 9,56c0,26 12,43 68,97c99,95 123,175 87,292c-8,26 -17,75 -21,109c-8,72 -48,129 -90,129c-34,0 -93,26 -100,44c-7,19 33,93 100,186c30,41 79,113 108,160c29,47 63,93 75,103c38,31 53,71 53,144c0,96 -28,186 -86,277c-81,127 -94,150 -94,172c0,11 19,50 42,85c54,84 85,152 82,181c-1,13 -3,34 -3,46c-1,15 -21,44 -54,75c-53,52 -100,120 -132,190c-15,31 -16,53 -10,140c8,124 -1,153 -84,270c-31,44 -66,93 -78,110c-12,18 -27,57 -33,87c-16,76 -50,189 -67,222c-17,36 -81,68 -132,68c-22,0 -75,-11 -117,-25c-110,-36 -135,-34 -162,13c-11,21 -31,47 -43,58c-11,10 -45,54 -75,96c-30,42 -77,95 -105,117c-49,39 -53,40 -108,35l-57,-6l-19,35c-11,20 -31,45 -47,57c-15,11 -40,48 -57,83c-26,55 -29,70 -24,122c3,33 11,70 19,81c7,12 13,37 13,55c0,19 3,51 6,71c10,51 -17,74 -140,121c-118,46 -203,67 -272,67c-69,0 -99,13 -151,63c-59,57 -86,110 -85,172c1,73 -57,193 -133,272c-65,68 -73,73 -196,102c-100,24 -242,89 -281,128c-44,44 -109,154 -123,204c-13,51 -6,102 23,163c16,34 16,36 -11,71c-40,52 -217,139 -313,154c-156,24 -190,14 -293,-84c-94,-90 -116,-85 -267,60c-59,58 -111,105 -114,105c-4,0 -39,25 -79,56c-86,66 -142,78 -227,50c-34,-11 -94,-18 -184,-20c-147,-4 -157,-7 -324,-93c-62,-32 -84,-49 -99,-77c-10,-20 -31,-43 -45,-53c-14,-9 -51,-38 -82,-65c-64,-55 -94,-60 -130,-22c-13,14 -68,49 -122,78c-54,28 -117,61 -140,73c-23,12 -67,32 -97,43c-30,12 -66,29 -80,38c-14,9 -66,37 -117,63c-50,25 -124,70 -163,98c-40,29 -88,58 -108,66c-21,7 -71,29 -112,49c-95,46 -141,48 -178,7zm-217,-4577c62,-31 69,-50 40,-113c-14,-29 -34,-64 -45,-78c-11,-14 -20,-39 -20,-55c0,-47 43,-79 161,-116c57,-19 124,-45 148,-58c80,-44 99,-37 231,92c88,85 91,86 195,97c46,4 192,-46 248,-85c38,-27 37,-70 -3,-98c-16,-12 -30,-27 -30,-33c-1,-7 -27,-24 -58,-40c-44,-21 -65,-26 -93,-21c-29,5 -41,1 -65,-19c-28,-25 -28,-27 -14,-54c16,-29 40,-43 105,-63c22,-7 81,-36 132,-65c70,-40 109,-55 164,-64c70,-11 73,-11 98,13c14,13 41,31 58,40c47,24 61,50 93,183c36,146 55,168 134,160c28,-3 77,-13 108,-23c67,-21 73,-36 50,-124l-16,-58l27,-35c34,-44 84,-68 150,-70c43,-1 69,7 150,46c53,26 106,47 116,47c56,0 88,-16 139,-69c49,-52 53,-59 47,-91c-4,-19 -16,-52 -27,-72c-24,-43 -20,-94 10,-133c32,-40 111,-95 169,-117c64,-25 75,-44 66,-116c-16,-138 86,-234 259,-244c47,-3 91,-9 98,-13c21,-13 3,-282 -24,-359c-12,-35 -28,-71 -35,-80c-7,-8 -23,-52 -36,-98c-28,-100 -35,-118 -45,-118c-7,0 -16,-26 -46,-127c-2,-7 -10,-13 -19,-13c-11,0 -15,12 -15,50c0,53 -38,184 -69,236c-25,41 -131,172 -167,205c-30,27 -110,87 -198,147c-36,26 -71,39 -145,53c-82,17 -221,36 -311,44c-57,5 -136,18 -158,26c-103,39 -500,81 -942,99c-107,4 -222,12 -255,18c-33,6 -141,14 -240,17c-99,4 -198,11 -221,16c-58,12 -872,13 -1044,1c-79,-6 -147,-9 -150,-7c-3,2 -32,-3 -65,-10c-33,-8 -109,-17 -170,-20c-60,-3 -144,-10 -185,-15c-41,-5 -138,-16 -215,-25c-77,-9 -187,-27 -245,-41c-58,-14 -130,-31 -160,-39c-30,-7 -84,-20 -120,-28c-36,-9 -90,-20 -120,-26c-30,-5 -82,-15 -115,-21c-33,-6 -89,-16 -125,-21c-89,-13 -152,-34 -240,-78c-41,-21 -109,-48 -150,-61c-43,-13 -127,-52 -198,-93c-104,-60 -130,-80 -173,-134c-28,-34 -52,-63 -54,-63c-2,0 -10,-3 -19,-6c-21,-8 -21,18 1,63c13,29 14,43 5,82c-14,59 -69,155 -114,198c-41,38 -97,45 -177,20c-69,-21 -78,-21 -90,2c-10,19 1,84 34,195c18,60 19,71 1,85c-10,8 -27,8 -64,0c-70,-14 -92,-2 -92,52c0,51 22,104 50,119c12,6 28,26 35,43c8,18 51,79 96,136c45,58 97,129 117,158c45,68 85,93 148,93c61,-1 84,-14 124,-68l31,-44l52,7c66,10 199,60 302,116c73,39 85,43 145,40c69,-2 187,-33 229,-59c14,-9 44,-30 66,-47c71,-55 168,-107 237,-126c127,-35 267,4 333,94c21,29 50,64 64,79c21,24 23,31 13,53c-14,31 -18,31 -117,-1c-91,-29 -123,-27 -199,11c-61,31 -106,89 -106,137c0,46 49,126 112,184c75,68 206,119 287,111c82,-7 183,-53 244,-109c39,-36 69,-53 118,-68c99,-30 128,-27 246,21c29,12 37,10 83,-11l51,-24l52,19c29,10 59,24 68,32c21,18 62,102 89,183c21,64 72,141 127,191c31,28 131,69 169,69c39,0 79,-26 112,-71c29,-38 30,-46 26,-108c-3,-42 0,-82 9,-111c12,-38 22,-49 69,-74l54,-30l63,24c69,25 127,76 200,173c24,31 47,57 50,57c4,0 29,27 57,61c27,33 63,67 79,75c38,18 110,13 160,-12zm-1227,-1701c14,-158 14,-240 1,-265c-5,-10 -12,-147 -14,-305c-6,-369 -23,-518 -72,-620c-20,-39 -62,-104 -95,-145c-64,-79 -227,-248 -240,-248c-4,0 -30,-20 -58,-45c-28,-25 -56,-45 -62,-45c-6,0 -26,-11 -44,-25c-18,-14 -39,-25 -47,-25c-8,0 -32,-12 -53,-26c-52,-36 -183,-79 -329,-109c-143,-29 -520,-51 -594,-34c-40,9 -136,41 -296,99c-111,40 -277,146 -319,204c-32,44 -113,214 -121,256c-4,19 -11,40 -15,45c-5,6 -11,37 -15,70c-4,33 -14,88 -21,123c-13,54 -16,126 -16,299c0,17 9,44 20,60c11,15 23,46 27,68c10,58 25,81 122,181c96,99 109,107 323,217c80,41 161,83 180,94c51,28 162,60 265,77c50,8 108,19 130,24c40,10 77,18 233,47c46,8 109,24 140,34c133,44 322,73 687,106c94,8 184,17 200,19c78,8 70,21 83,-131zm747,107c66,-5 139,-13 163,-16l42,-6l0,-78l0,-78l-31,-11c-34,-12 -484,-16 -513,-5c-13,5 -16,24 -16,99c0,65 4,95 13,98c21,9 217,7 342,-3zm923,-35c63,-8 164,-15 225,-15c129,1 148,1 202,0c59,0 394,-46 510,-68c55,-11 143,-26 195,-32c52,-7 120,-20 150,-30c30,-10 78,-21 106,-24c52,-6 174,-43 234,-71c74,-35 96,-50 174,-125c87,-84 83,-75 125,-250c39,-158 51,-328 30,-420c-6,-25 -13,-62 -16,-82c-3,-21 -11,-42 -19,-49c-8,-6 -14,-22 -14,-35c0,-79 -146,-290 -288,-415c-184,-162 -298,-227 -462,-264c-41,-9 -115,-28 -165,-42c-52,-14 -128,-27 -180,-29c-152,-7 -312,-5 -340,6c-14,5 -41,10 -59,10c-18,0 -62,9 -97,19c-35,11 -76,22 -91,25c-73,16 -349,247 -437,366c-14,19 -45,59 -69,87c-24,29 -73,109 -107,177l-64,124l-6,184c-6,139 -4,190 6,213c7,17 16,102 20,200c5,94 13,202 18,240c5,39 13,118 17,177c4,58 10,112 15,119c9,15 147,29 224,23c28,-2 101,-11 163,-19zm-4215,-593c-9,-20 -22,-65 -29,-98c-8,-34 -18,-74 -24,-89c-5,-14 -10,-37 -10,-49c0,-30 -26,-54 -42,-38c-16,16 6,182 30,229c43,84 111,124 75,45z" />
  </g>
</svg>
