<?xml version="1.0" standalone="no"?>
<!DOCTYPE svg PUBLIC "-//W3C//DTD SVG 20010904//EN"
 "http://www.w3.org/TR/2001/REC-SVG-20010904/DTD/svg10.dtd">
<svg version="1.0" xmlns="http://www.w3.org/2000/svg"
 width="1351.000000pt" height="1351.000000pt" viewBox="0 0 1351.000000 1351.000000"
 preserveAspectRatio="xMidYMid meet">
<metadata>
Created by potrace 1.14, written by Peter Selinger 2001-2017
</metadata>
<g transform="translate(0.000000,1351.000000) scale(0.100000,-0.100000)"
fill="#000000" stroke="none">
<path d="M7382 11231 c-52 -56 -142 -188 -142 -208 0 -29 -49 -45 -123 -43
-39 2 -106 3 -147 2 -41 0 -115 -1 -165 -2 -49 0 -106 2 -126 5 -32 6 -42 2
-74 -26 -20 -18 -48 -55 -62 -83 -14 -28 -31 -54 -37 -58 -6 -4 -34 -8 -62 -8
-28 0 -69 -6 -90 -14 -22 -7 -68 -16 -103 -20 -72 -8 -199 -41 -303 -77 l-68
-24 -47 54 c-47 53 -132 193 -133 219 0 7 -17 33 -37 58 -29 34 -44 44 -68 44
-48 0 -225 -46 -285 -73 -30 -14 -93 -42 -140 -62 -47 -21 -98 -48 -115 -60
-78 -58 -313 -145 -390 -145 -51 0 -69 24 -59 79 4 25 8 69 8 96 1 49 0 50
-44 73 -56 28 -127 29 -180 2 -21 -11 -41 -24 -45 -30 -3 -5 -23 -14 -45 -20
-34 -9 -46 -22 -105 -112 -37 -55 -73 -118 -80 -138 -24 -67 -45 -101 -73
-113 -15 -6 -55 -32 -90 -57 -48 -35 -65 -53 -72 -82 -6 -20 -17 -49 -25 -65
-8 -15 -15 -33 -15 -40 0 -7 -17 -30 -37 -51 -29 -30 -49 -41 -83 -47 -25 -3
-77 -22 -116 -40 -108 -51 -179 -72 -279 -83 -86 -10 -186 -38 -249 -69 -42
-22 -117 -43 -152 -43 -20 0 -39 9 -55 26 -13 14 -47 39 -76 55 -44 25 -65 31
-125 32 -72 2 -74 1 -148 -47 -41 -28 -101 -74 -133 -103 -32 -29 -62 -53 -66
-53 -5 0 -29 -31 -55 -68 -46 -68 -46 -69 -36 -121 5 -28 14 -60 20 -71 16
-31 1 -68 -38 -92 -20 -12 -83 -45 -139 -73 -94 -46 -106 -55 -138 -105 -20
-30 -38 -65 -42 -78 -10 -41 4 -225 21 -271 19 -52 22 -201 4 -252 -14 -42
-51 -92 -83 -113 -13 -8 -52 -20 -87 -25 -34 -6 -115 -33 -178 -60 -63 -27
-153 -61 -200 -76 -47 -15 -116 -46 -155 -70 -38 -23 -86 -50 -105 -60 -19
-10 -70 -50 -113 -89 -117 -107 -167 -227 -146 -354 6 -42 17 -63 47 -96 22
-24 45 -52 51 -63 12 -24 3 -37 -119 -178 -41 -48 -89 -108 -107 -134 -50 -72
-70 -87 -185 -138 -118 -52 -217 -120 -316 -215 -59 -56 -63 -62 -55 -92 25
-96 -4 -228 -84 -388 -44 -87 -44 -88 -27 -120 30 -60 65 -99 139 -153 40 -30
88 -73 106 -97 l34 -42 3 -281 c2 -154 4 -421 5 -593 l2 -314 28 -24 c16 -14
49 -30 74 -37 35 -9 52 -21 79 -58 19 -26 34 -50 34 -54 0 -4 13 -24 28 -44
29 -37 37 -56 93 -201 45 -116 89 -191 138 -235 22 -20 55 -66 72 -101 37 -74
35 -121 -6 -182 -22 -32 -32 -58 -70 -192 -17 -60 -18 -130 -2 -149 8 -9 31
-55 52 -102 37 -85 39 -87 99 -118 48 -24 74 -31 119 -31 34 0 64 -5 71 -13
20 -21 52 -81 60 -112 11 -44 43 -73 100 -90 51 -15 83 -47 100 -102 4 -12 17
-41 30 -64 19 -37 31 -47 81 -66 142 -55 165 -94 165 -275 l0 -125 47 -44 c25
-24 63 -60 82 -80 42 -42 101 -81 186 -122 77 -37 143 -54 244 -63 78 -6 82
-6 118 22 21 15 41 34 46 41 9 15 69 27 99 20 13 -4 49 -29 82 -56 53 -45 65
-50 124 -57 58 -6 71 -4 110 17 115 61 184 136 240 260 25 57 44 73 117 99
194 70 341 168 419 280 26 38 31 54 31 105 0 51 -6 69 -37 120 -20 33 -49 71
-63 85 -15 14 -55 61 -88 105 -33 44 -73 94 -88 110 -15 17 -41 56 -58 89 -26
49 -31 69 -31 128 0 87 17 150 39 146 10 -2 17 -15 19 -33 10 -116 83 -305
164 -427 63 -95 337 -362 410 -399 77 -39 181 -70 268 -80 47 -5 119 -14 160
-20 69 -10 267 -13 336 -4 16 2 65 6 109 9 252 20 403 46 485 85 80 37 323
170 329 179 3 5 38 35 76 67 113 95 246 242 323 358 40 59 72 112 72 116 0 5
7 14 15 21 17 14 95 175 117 240 38 113 48 149 48 173 0 13 6 42 14 64 8 22
20 76 27 119 7 43 23 107 36 142 12 34 23 78 23 96 0 19 8 43 18 54 15 18 23
19 82 11 36 -5 137 -9 225 -8 88 0 169 0 181 -1 24 0 22 13 27 -285 2 -147 7
-195 24 -260 12 -44 33 -129 47 -190 15 -60 35 -122 46 -137 11 -15 20 -32 20
-37 0 -6 21 -40 46 -76 25 -36 54 -81 63 -99 36 -76 435 -476 473 -476 6 0 33
-12 62 -26 46 -23 134 -49 281 -82 74 -17 192 -29 260 -26 33 1 146 5 250 8
182 7 319 24 395 51 19 7 57 15 83 19 27 4 57 16 68 27 10 10 22 19 25 19 15
0 155 66 199 95 28 17 83 51 123 75 88 52 224 194 294 308 92 150 146 385 149
646 0 64 4 118 8 121 5 2 21 -9 37 -26 16 -17 62 -46 101 -65 40 -19 78 -45
85 -57 6 -12 11 -54 11 -94 -2 -84 -18 -122 -105 -235 -60 -79 -75 -118 -64
-162 5 -20 15 -27 60 -36 29 -6 61 -17 71 -24 20 -14 19 -18 -40 -181 -19 -55
-33 -105 -31 -111 9 -23 -17 -112 -58 -199 -71 -149 -80 -178 -67 -217 22 -66
150 -111 341 -122 100 -6 252 -40 259 -58 7 -19 114 -132 147 -155 18 -13 44
-23 59 -23 52 0 234 50 321 88 136 60 179 71 305 80 103 8 125 12 192 44 91
44 109 71 111 168 2 74 18 105 87 163 36 31 47 35 126 41 98 8 127 20 171 71
50 56 65 92 58 139 -6 35 -3 46 21 74 16 18 66 51 113 75 73 37 91 51 127 102
100 142 94 120 99 347 2 112 8 227 14 256 5 32 5 63 0 77 -11 28 -7 32 85 77
40 20 109 42 160 53 99 19 117 30 121 72 5 55 23 142 33 162 6 11 11 33 11 50
0 42 62 171 104 216 35 36 38 37 85 31 57 -8 173 17 193 41 19 24 50 141 55
211 4 49 0 71 -15 104 -16 30 -18 46 -11 65 5 13 9 39 9 56 0 26 12 43 68 97
99 95 123 175 87 292 -8 26 -17 75 -21 109 -8 72 -48 129 -90 129 -34 0 -93
26 -100 44 -7 19 33 93 100 186 30 41 79 113 108 160 29 47 63 93 75 103 38
31 53 71 53 144 0 96 -28 186 -86 277 -81 127 -94 150 -94 172 0 11 19 50 42
85 54 84 85 152 82 181 -1 13 -3 34 -3 46 -1 15 -21 44 -54 75 -53 52 -100
120 -132 190 -15 31 -16 53 -10 140 8 124 -1 153 -84 270 -31 44 -66 93 -78
110 -12 18 -27 57 -33 87 -16 76 -50 189 -67 222 -17 36 -81 68 -132 68 -22 0
-75 -11 -117 -25 -110 -36 -135 -34 -162 13 -11 21 -31 47 -43 58 -11 10 -45
54 -75 96 -30 42 -77 95 -105 117 -49 39 -53 40 -108 35 l-57 -6 -19 35 c-11
20 -31 45 -47 57 -15 11 -40 48 -57 83 -26 55 -29 70 -24 122 3 33 11 70 19
81 7 12 13 37 13 55 0 19 3 51 6 71 10 51 -17 74 -140 121 -118 46 -203 67
-272 67 -69 0 -99 13 -151 63 -59 57 -86 110 -85 172 1 73 -57 193 -133 272
-65 68 -73 73 -196 102 -100 24 -242 89 -281 128 -44 44 -109 154 -123 204
-13 51 -6 102 23 163 16 34 16 36 -11 71 -40 52 -217 139 -313 154 -156 24
-190 14 -293 -84 -94 -90 -116 -85 -267 60 -59 58 -111 105 -114 105 -4 0 -39
25 -79 56 -86 66 -142 78 -227 50 -34 -11 -94 -18 -184 -20 -147 -4 -157 -7
-324 -93 -62 -32 -84 -49 -99 -77 -10 -20 -31 -43 -45 -53 -14 -9 -51 -38 -82
-65 -64 -55 -94 -60 -130 -22 -13 14 -68 49 -122 78 -54 28 -117 61 -140 73
-23 12 -67 32 -97 43 -30 12 -66 29 -80 38 -14 9 -66 37 -117 63 -50 25 -124
70 -163 98 -40 29 -88 58 -108 66 -21 7 -71 29 -112 49 -95 46 -141 48 -178 7z
m-217 -4577 c62 -31 69 -50 40 -113 -14 -29 -34 -64 -45 -78 -11 -14 -20 -39
-20 -55 0 -47 43 -79 161 -116 57 -19 124 -45 148 -58 80 -44 99 -37 231 92
88 85 91 86 195 97 46 4 192 -46 248 -85 38 -27 37 -70 -3 -98 -16 -12 -30
-27 -30 -33 -1 -7 -27 -24 -58 -40 -44 -21 -65 -26 -93 -21 -29 5 -41 1 -65
-19 -28 -25 -28 -27 -14 -54 16 -29 40 -43 105 -63 22 -7 81 -36 132 -65 70
-40 109 -55 164 -64 70 -11 73 -11 98 13 14 13 41 31 58 40 47 24 61 50 93
183 36 146 55 168 134 160 28 -3 77 -13 108 -23 67 -21 73 -36 50 -124 l-16
-58 27 -35 c34 -44 84 -68 150 -70 43 -1 69 7 150 46 53 26 106 47 116 47 56
0 88 -16 139 -69 49 -52 53 -59 47 -91 -4 -19 -16 -52 -27 -72 -24 -43 -20
-94 10 -133 32 -40 111 -95 169 -117 64 -25 75 -44 66 -116 -16 -138 86 -234
259 -244 47 -3 91 -9 98 -13 21 -13 3 -282 -24 -359 -12 -35 -28 -71 -35 -80
-7 -8 -23 -52 -36 -98 -28 -100 -35 -118 -45 -118 -7 0 -16 -26 -46 -127 -2
-7 -10 -13 -19 -13 -11 0 -15 12 -15 50 0 53 -38 184 -69 236 -25 41 -131 172
-167 205 -30 27 -110 87 -198 147 -36 26 -71 39 -145 53 -82 17 -221 36 -311
44 -57 5 -136 18 -158 26 -103 39 -500 81 -942 99 -107 4 -222 12 -255 18 -33
6 -141 14 -240 17 -99 4 -198 11 -221 16 -58 12 -872 13 -1044 1 -79 -6 -147
-9 -150 -7 -3 2 -32 -3 -65 -10 -33 -8 -109 -17 -170 -20 -60 -3 -144 -10
-185 -15 -41 -5 -138 -16 -215 -25 -77 -9 -187 -27 -245 -41 -58 -14 -130 -31
-160 -39 -30 -7 -84 -20 -120 -28 -36 -9 -90 -20 -120 -26 -30 -5 -82 -15
-115 -21 -33 -6 -89 -16 -125 -21 -89 -13 -152 -34 -240 -78 -41 -21 -109 -48
-150 -61 -43 -13 -127 -52 -198 -93 -104 -60 -130 -80 -173 -134 -28 -34 -52
-63 -54 -63 -2 0 -10 -3 -19 -6 -21 -8 -21 18 1 63 13 29 14 43 5 82 -14 59
-69 155 -114 198 -41 38 -97 45 -177 20 -69 -21 -78 -21 -90 2 -10 19 1 84 34
195 18 60 19 71 1 85 -10 8 -27 8 -64 0 -70 -14 -92 -2 -92 52 0 51 22 104 50
119 12 6 28 26 35 43 8 18 51 79 96 136 45 58 97 129 117 158 45 68 85 93 148
93 61 -1 84 -14 124 -68 l31 -44 52 7 c66 10 199 60 302 116 73 39 85 43 145
40 69 -2 187 -33 229 -59 14 -9 44 -30 66 -47 71 -55 168 -107 237 -126 127
-35 267 4 333 94 21 29 50 64 64 79 21 24 23 31 13 53 -14 31 -18 31 -117 -1
-91 -29 -123 -27 -199 11 -61 31 -106 89 -106 137 0 46 49 126 112 184 75 68
206 119 287 111 82 -7 183 -53 244 -109 39 -36 69 -53 118 -68 99 -30 128 -27
246 21 29 12 37 10 83 -11 l51 -24 52 19 c29 10 59 24 68 32 21 18 62 102 89
183 21 64 72 141 127 191 31 28 131 69 169 69 39 0 79 -26 112 -71 29 -38 30
-46 26 -108 -3 -42 0 -82 9 -111 12 -38 22 -49 69 -74 l54 -30 63 24 c69 25
127 76 200 173 24 31 47 57 50 57 4 0 29 27 57 61 27 33 63 67 79 75 38 18
110 13 160 -12z m-1227 -1701 c14 -158 14 -240 1 -265 -5 -10 -12 -147 -14
-305 -6 -369 -23 -518 -72 -620 -20 -39 -62 -104 -95 -145 -64 -79 -227 -248
-240 -248 -4 0 -30 -20 -58 -45 -28 -25 -56 -45 -62 -45 -6 0 -26 -11 -44 -25
-18 -14 -39 -25 -47 -25 -8 0 -32 -12 -53 -26 -52 -36 -183 -79 -329 -109
-143 -29 -520 -51 -594 -34 -40 9 -136 41 -296 99 -111 40 -277 146 -319 204
-32 44 -113 214 -121 256 -4 19 -11 40 -15 45 -5 6 -11 37 -15 70 -4 33 -14
88 -21 123 -13 54 -16 126 -16 299 0 17 9 44 20 60 11 15 23 46 27 68 10 58
25 81 122 181 96 99 109 107 323 217 80 41 161 83 180 94 51 28 162 60 265 77
50 8 108 19 130 24 40 10 77 18 233 47 46 8 109 24 140 34 133 44 322 73 687
106 94 8 184 17 200 19 78 8 70 21 83 -131z m747 107 c66 -5 139 -13 163 -16
l42 -6 0 -78 0 -78 -31 -11 c-34 -12 -484 -16 -513 -5 -13 5 -16 24 -16 99 0
65 4 95 13 98 21 9 217 7 342 -3z m923 -35 c63 -8 164 -15 225 -15 129 1 148
1 202 0 59 0 394 -46 510 -68 55 -11 143 -26 195 -32 52 -7 120 -20 150 -30
30 -10 78 -21 106 -24 52 -6 174 -43 234 -71 74 -35 96 -50 174 -125 87 -84
83 -75 125 -250 39 -158 51 -328 30 -420 -6 -25 -13 -62 -16 -82 -3 -21 -11
-42 -19 -49 -8 -6 -14 -22 -14 -35 0 -79 -146 -290 -288 -415 -184 -162 -298
-227 -462 -264 -41 -9 -115 -28 -165 -42 -52 -14 -128 -27 -180 -29 -152 -7
-312 -5 -340 6 -14 5 -41 10 -59 10 -18 0 -62 9 -97 19 -35 11 -76 22 -91 25
-73 16 -349 247 -437 366 -14 19 -45 59 -69 87 -24 29 -73 109 -107 177 l-64
124 -6 184 c-6 139 -4 190 6 213 7 17 16 102 20 200 5 94 13 202 18 240 5 39
13 118 17 177 4 58 10 112 15 119 9 15 147 29 224 23 28 -2 101 -11 163 -19z
m-4215 -593 c-9 -20 -22 -65 -29 -98 -8 -34 -18 -74 -24 -89 -5 -14 -10 -37
-10 -49 0 -30 -26 -54 -42 -38 -16 16 6 182 30 229 43 84 111 124 75 45z"/>
</g>
</svg>
